<svg xmlns="http://www.w3.org/2000/svg" xmlns:xlink="http://www.w3.org/1999/xlink" contentStyleType="text/css" data-diagram-type="DESCRIPTION" height="2228px" preserveAspectRatio="none" style="width:756px;height:2228px;background:#FFFFFF;" version="1.1" viewBox="0 0 756 2228" width="756px" zoomAndPan="magnify"><?plantuml 1.2026.3beta6?><defs/><g><g class="title" data-source-line="1"><text fill="#000000" font-family="'Times New Roman'" font-size="14" font-weight="700" lengthAdjust="spacing" textLength="296.6729" x="226.2986" y="22.9951">Use Case Tong Quat - Zola (chat_app)</text></g><!--cluster ZOLA CHAT_APP SYSTEM--><g class="cluster" data-qualified-name="ZOLA CHAT_APP SYSTEM" data-source-line="26" id="ent0008"><rect fill="#FFF9EE" height="2160" rx="2.5" ry="2.5" style="stroke:#8B6F47;stroke-width:1;" width="356.12" x="386.15" y="54.1569"/><text fill="#000000" font-family="'Times New Roman'" font-size="14" font-weight="700" lengthAdjust="spacing" textLength="195.6377" x="466.3912" y="69.152">ZOLA CHAT_APP SYSTEM</text></g><!--cluster Auth & Profile--><g class="cluster" data-qualified-name="ZOLA CHAT_APP SYSTEM.Auth . Profile" data-source-line="28" id="ent0009"><rect fill="#FFF9EE" height="986" rx="2.5" ry="2.5" style="stroke:#8B6F47;stroke-width:1;" width="308.12" x="410.15" y="97.1569"/><text fill="#000000" font-family="'Times New Roman'" font-size="14" font-weight="700" lengthAdjust="spacing" textLength="111.3848" x="508.5176" y="112.152">Auth &amp; Profile</text></g><!--cluster Friendship & Contact--><g class="cluster" data-qualified-name="ZOLA CHAT_APP SYSTEM.Friendship . Contact" data-source-line="44" id="ent0023"><rect fill="#FFF9EE" height="460" rx="2.5" ry="2.5" style="stroke:#8B6F47;stroke-width:1;" width="243.41" x="442.51" y="1107.1569"/><text fill="#000000" font-family="'Times New Roman'" font-size="14" font-weight="700" lengthAdjust="spacing" textLength="166.8174" x="480.8063" y="1122.152">Friendship &amp; Contact</text></g><!--cluster Messenger--><g class="cluster" data-qualified-name="ZOLA CHAT_APP SYSTEM.Messenger" data-source-line="53" id="ent0030"><rect fill="#FFF9EE" height="599" rx="2.5" ry="2.5" style="stroke:#8B6F47;stroke-width:1;" width="295.04" x="416.69" y="1591.1569"/><text fill="#000000" font-family="'Times New Roman'" font-size="14" font-weight="700" lengthAdjust="spacing" textLength="85.9756" x="521.2222" y="1606.152">Messenger</text></g><!--entity UC_Register--><g class="entity" data-qualified-name="ZOLA CHAT_APP SYSTEM.Auth . Profile.UC_Register" data-source-line="29" id="ent0010"><ellipse cx="564.2112" cy="394.1551" fill="#EEF4FB" rx="78.7912" ry="18.1582" style="stroke:#355C7D;stroke-width:0.5;"/><text fill="#000000" font-family="'Times New Roman'" font-size="14" lengthAdjust="spacing" textLength="127.8184" x="500.302" y="398.8036">Dang ky tai khoan</text></g><!--entity UC_Login--><g class="entity" data-qualified-name="ZOLA CHAT_APP SYSTEM.Auth . Profile.UC_Login" data-source-line="30" id="ent0011"><ellipse cx="564.2125" cy="615.1605" fill="#EEF4FB" rx="57.2925" ry="14.5236" style="stroke:#355C7D;stroke-width:0.5;"/><text fill="#000000" font-family="'Times New Roman'" font-size="14" lengthAdjust="spacing" textLength="76.7813" x="525.8219" y="619.8089">Dang nhap</text></g><!--entity UC_GoogleLogin--><g class="entity" data-qualified-name="ZOLA CHAT_APP SYSTEM.Auth . Profile.UC_GoogleLogin" data-source-line="31" id="ent0012"><ellipse cx="564.2079" cy="984.1605" fill="#EEF4FB" rx="79.9679" ry="18.3936" style="stroke:#355C7D;stroke-width:0.5;"/><text fill="#000000" font-family="'Times New Roman'" font-size="14" lengthAdjust="spacing" textLength="130.6006" x="498.9076" y="988.8089">Dang nhap Google</text></g><!--entity UC_Forgot--><g class="entity" data-qualified-name="ZOLA CHAT_APP SYSTEM.Auth . Profile.UC_Forgot" data-source-line="32" id="ent0013"><ellipse cx="564.2125" cy="549.1594" fill="#EEF4FB" rx="70.8125" ry="16.5625" style="stroke:#355C7D;stroke-width:0.5;"/><text fill="#000000" font-family="'Times New Roman'" font-size="14" lengthAdjust="spacing" textLength="108.418" x="510.0036" y="553.8078">Quen mat khau</text></g><!--entity UC_SendOtp--><g class="entity" data-qualified-name="ZOLA CHAT_APP SYSTEM.Auth . Profile.UC_SendOtp" data-source-line="33" id="ent0014"><ellipse cx="564.2112" cy="1052.1605" fill="#EEF4FB" rx="42.6512" ry="14.5236" style="stroke:#355C7D;stroke-width:0.5;"/><text fill="#000000" font-family="'Times New Roman'" font-size="14" lengthAdjust="spacing" textLength="56.0752" x="536.1736" y="1056.8089">Gui OTP</text></g><!--entity UC_VerifyOtp--><g class="entity" data-qualified-name="ZOLA CHAT_APP SYSTEM.Auth . Profile.UC_VerifyOtp" data-source-line="34" id="ent0015"><ellipse cx="564.2064" cy="148.1562" fill="#EEF4FB" rx="66.7464" ry="15.7493" style="stroke:#355C7D;stroke-width:0.5;"/><text fill="#000000" font-family="'Times New Roman'" font-size="14" lengthAdjust="spacing" textLength="98.0547" x="515.1791" y="152.8046">Xac minh OTP</text></g><!--entity UC_ResetPwd--><g class="entity" data-qualified-name="ZOLA CHAT_APP SYSTEM.Auth . Profile.UC_ResetPwd" data-source-line="35" id="ent0016"><ellipse cx="564.2148" cy="464.1598" fill="#EEF4FB" rx="74.1648" ry="17.233" style="stroke:#355C7D;stroke-width:0.5;"/><text fill="#000000" font-family="'Times New Roman'" font-size="14" lengthAdjust="spacing" textLength="116.6963" x="505.8667" y="468.8083">Dat lai mat khau</text></g><!--entity UC_Refresh--><g class="entity" data-qualified-name="ZOLA CHAT_APP SYSTEM.Auth . Profile.UC_Refresh" data-source-line="36" id="ent0017"><ellipse cx="564.2086" cy="680.1546" fill="#EEF4FB" rx="66.6886" ry="15.7377" style="stroke:#355C7D;stroke-width:0.5;"/><text fill="#000000" font-family="'Times New Roman'" font-size="14" lengthAdjust="spacing" textLength="97.9043" x="515.2565" y="684.803">Refresh token</text></g><!--entity UC_Logout--><g class="entity" data-qualified-name="ZOLA CHAT_APP SYSTEM.Auth . Profile.UC_Logout" data-source-line="37" id="ent0018"><ellipse cx="564.2145" cy="745.1605" fill="#EEF4FB" rx="54.4745" ry="14.5236" style="stroke:#355C7D;stroke-width:0.5;"/><text fill="#000000" font-family="'Times New Roman'" font-size="14" lengthAdjust="spacing" textLength="72.7959" x="527.8165" y="749.8089">Dang xuat</text></g><!--entity UC_Profile--><g class="entity" data-qualified-name="ZOLA CHAT_APP SYSTEM.Auth . Profile.UC_Profile" data-source-line="38" id="ent0019"><ellipse cx="564.2103" cy="320.1549" fill="#EEF4FB" rx="90.9403" ry="20.5881" style="stroke:#355C7D;stroke-width:0.5;"/><text fill="#000000" font-family="'Times New Roman'" font-size="14" lengthAdjust="spacing" textLength="155.8662" x="486.2772" y="324.8034">Xem / cap nhat profile</text></g><!--entity UC_Security--><g class="entity" data-qualified-name="ZOLA CHAT_APP SYSTEM.Auth . Profile.UC_Security" data-source-line="39" id="ent0020"><ellipse cx="564.215" cy="240.1579" fill="#EEF4FB" rx="112.505" ry="24.901" style="stroke:#355C7D;stroke-width:0.5;"/><text fill="#000000" font-family="'Times New Roman'" font-size="14" lengthAdjust="spacing" textLength="203.2871" x="462.5714" y="244.8063">Cap nhat bao mat va privacy</text></g><!--entity UC_SearchUser--><g class="entity" data-qualified-name="ZOLA CHAT_APP SYSTEM.Auth . Profile.UC_SearchUser" data-source-line="40" id="ent0021"><ellipse cx="564.207" cy="825.1583" fill="#EEF4FB" rx="138.057" ry="30.0114" style="stroke:#355C7D;stroke-width:0.5;"/><text fill="#000000" font-family="'Times New Roman'" font-size="14" lengthAdjust="spacing" textLength="257.5303" x="435.4418" y="829.8067">Tim kiem user (phone/display name)</text></g><!--entity UC_Presence--><g class="entity" data-qualified-name="ZOLA CHAT_APP SYSTEM.Auth . Profile.UC_Presence" data-source-line="41" id="ent0022"><ellipse cx="564.2096" cy="910.1548" fill="#EEF4FB" rx="89.8396" ry="20.3679" style="stroke:#355C7D;stroke-width:0.5;"/><text fill="#000000" font-family="'Times New Roman'" font-size="14" lengthAdjust="spacing" textLength="153.3779" x="487.5207" y="914.8032">Xem presence ban be</text></g><!--entity UC_SendFriendReq--><g class="entity" data-qualified-name="ZOLA CHAT_APP SYSTEM.Friendship . Contact.UC_SendFriendReq" data-source-line="45" id="ent0024"><ellipse cx="564.212" cy="1161.1533" fill="#EEF4FB" rx="80.732" ry="18.5464" style="stroke:#355C7D;stroke-width:0.5;"/><text fill="#000000" font-family="'Times New Roman'" font-size="14" lengthAdjust="spacing" textLength="132.3984" x="498.0128" y="1165.8017">Gui loi moi ket ban</text></g><!--entity UC_HandleFriendReq--><g class="entity" data-qualified-name="ZOLA CHAT_APP SYSTEM.Friendship . Contact.UC_HandleFriendReq" data-source-line="46" id="ent0025"><ellipse cx="564.2146" cy="1238.1578" fill="#EEF4FB" rx="105.7046" ry="23.5409" style="stroke:#355C7D;stroke-width:0.5;"/><text fill="#000000" font-family="'Times New Roman'" font-size="14" lengthAdjust="spacing" textLength="188.5557" x="469.9368" y="1242.8062">Chap nhan / tu choi loi moi</text></g><!--entity UC_Relation--><g class="entity" data-qualified-name="ZOLA CHAT_APP SYSTEM.Friendship . Contact.UC_Relation" data-source-line="47" id="ent0026"><ellipse cx="564.2053" cy="1319.1559" fill="#EEF4FB" rx="102.4453" ry="22.8891" style="stroke:#355C7D;stroke-width:0.5;"/><text fill="#000000" font-family="'Times New Roman'" font-size="14" lengthAdjust="spacing" textLength="181.4326" x="473.489" y="1323.8044">Unfriend / Block / Unblock</text></g><!--entity UC_Contacts--><g class="entity" data-qualified-name="ZOLA CHAT_APP SYSTEM.Friendship . Contact.UC_Contacts" data-source-line="48" id="ent0027"><ellipse cx="564.2118" cy="1392.1532" fill="#EEF4FB" rx="64.9818" ry="15.3964" style="stroke:#355C7D;stroke-width:0.5;"/><text fill="#000000" font-family="'Times New Roman'" font-size="14" lengthAdjust="spacing" textLength="93.4199" x="517.5019" y="1396.8017">Xem danh ba</text></g><!--entity UC_QR--><g class="entity" data-qualified-name="ZOLA CHAT_APP SYSTEM.Friendship . Contact.UC_QR" data-source-line="49" id="ent0028"><ellipse cx="564.2074" cy="1461.1544" fill="#EEF4FB" rx="81.9874" ry="18.7975" style="stroke:#355C7D;stroke-width:0.5;"/><text fill="#000000" font-family="'Times New Roman'" font-size="14" lengthAdjust="spacing" textLength="135.3379" x="496.5385" y="1465.8028">Them ban bang QR</text></g><!--entity UC_Suggest--><g class="entity" data-qualified-name="ZOLA CHAT_APP SYSTEM.Friendship . Contact.UC_Suggest" data-source-line="50" id="ent0029"><ellipse cx="564.2063" cy="1533.1601" fill="#EEF4FB" rx="76.8163" ry="17.7633" style="stroke:#355C7D;stroke-width:0.5;"/><text fill="#000000" font-family="'Times New Roman'" font-size="14" lengthAdjust="spacing" textLength="123.1084" x="502.6521" y="1537.8086">Xem goi y ban be</text></g><!--entity UC_CreateConv--><g class="entity" data-qualified-name="ZOLA CHAT_APP SYSTEM.Messenger.UC_CreateConv" data-source-line="54" id="ent0031"><ellipse cx="564.2084" cy="1723.1526" fill="#EEF4FB" rx="98.9784" ry="22.1957" style="stroke:#355C7D;stroke-width:0.5;"/><text fill="#000000" font-family="'Times New Roman'" font-size="14" lengthAdjust="spacing" textLength="173.8037" x="477.3066" y="1727.801">Tao hoi thoai 1-1 / Nhom</text></g><!--entity UC_GroupManage--><g class="entity" data-qualified-name="ZOLA CHAT_APP SYSTEM.Messenger.UC_GroupManage" data-source-line="55" id="ent0032"><ellipse cx="564.2143" cy="1809.1557" fill="#EEF4FB" rx="130.3443" ry="28.4689" style="stroke:#355C7D;stroke-width:0.5;"/><text fill="#000000" font-family="'Times New Roman'" font-size="14" lengthAdjust="spacing" textLength="241.3018" x="443.5634" y="1813.8042">Quan ly thanh vien &amp; admin nhom</text></g><!--entity UC_ListConv--><g class="entity" data-qualified-name="ZOLA CHAT_APP SYSTEM.Messenger.UC_ListConv" data-source-line="56" id="ent0033"><ellipse cx="564.2075" cy="1895.1524" fill="#EEF4FB" rx="99.0775" ry="22.2155" style="stroke:#355C7D;stroke-width:0.5;"/><text fill="#000000" font-family="'Times New Roman'" font-size="14" lengthAdjust="spacing" textLength="174.0225" x="477.1962" y="1899.8008">Xem danh sach hoi thoai</text></g><!--entity UC_History--><g class="entity" data-qualified-name="ZOLA CHAT_APP SYSTEM.Messenger.UC_History" data-source-line="57" id="ent0034"><ellipse cx="564.2081" cy="1972.1585" fill="#EEF4FB" rx="85.5581" ry="19.5116" style="stroke:#355C7D;stroke-width:0.5;"/><text fill="#000000" font-family="'Times New Roman'" font-size="14" lengthAdjust="spacing" textLength="143.6094" x="492.4034" y="1976.8069">Xem lich su tin nhan</text></g><!--entity UC_SendMsg--><g class="entity" data-qualified-name="ZOLA CHAT_APP SYSTEM.Messenger.UC_SendMsg" data-source-line="58" id="ent0035"><ellipse cx="564.2101" cy="1646.1589" fill="#EEF4FB" rx="87.8601" ry="19.972" style="stroke:#355C7D;stroke-width:0.5;"/><text fill="#000000" font-family="'Times New Roman'" font-size="14" lengthAdjust="spacing" textLength="148.8799" x="489.7701" y="1650.8073">Gui tin nhan realtime</text></g><!--entity UC_ReceiveMsg--><g class="entity" data-qualified-name="ZOLA CHAT_APP SYSTEM.Messenger.UC_ReceiveMsg" data-source-line="59" id="ent0036"><ellipse cx="564.208" cy="2054.1605" fill="#EEF4FB" rx="123.318" ry="27.0636" style="stroke:#355C7D;stroke-width:0.5;"/><text fill="#000000" font-family="'Times New Roman'" font-size="14" lengthAdjust="spacing" textLength="226.4199" x="450.998" y="2058.8089">Nhan tin nhan realtime (STOMP)</text></g><!--entity UC_Upload--><g class="entity" data-qualified-name="ZOLA CHAT_APP SYSTEM.Messenger.UC_Upload" data-source-line="60" id="ent0037"><ellipse cx="564.2136" cy="2145.1616" fill="#EEF4FB" rx="131.5236" ry="28.7047" style="stroke:#355C7D;stroke-width:0.5;"/><text fill="#000000" font-family="'Times New Roman'" font-size="14" lengthAdjust="spacing" textLength="243.79" x="442.3186" y="2149.81">Upload media (avatar/attachment)</text></g><!--entity Guest--><g class="entity" data-qualified-name="Guest" data-source-line="18" id="ent0002"><ellipse cx="211.41" cy="186.0069" fill="#F1F1F1" rx="16" ry="16" style="stroke:#181818;stroke-width:0.5;"/><path d="M211.41,206.0069 C215.41,206.0069 218.41,206.0069 222.41,202.0069 C230.41,202.0069 238.41,210.0069 238.41,218.0069 L238.41,222.0069 C238.41,226.0069 234.41,230.0069 230.41,230.0069 L192.41,230.0069 C188.41,230.0069 184.41,226.0069 184.41,222.0069 L184.41,218.0069 C184.41,210.0069 192.41,202.0069 200.41,202.0069 C204.41,206.0069 207.41,206.0069 211.41,206.0069" fill="#F1F1F1" style="stroke:#181818;stroke-width:0.5;"/><text fill="#000000" font-family="'Times New Roman'" font-size="14" lengthAdjust="spacing" textLength="41.1182" x="190.8509" y="243.502">Guest</text></g><!--entity User--><g class="entity" data-qualified-name="User" data-source-line="19" id="ent0003"><ellipse cx="46.3286" cy="1299.0069" fill="#F1F1F1" rx="16" ry="16" style="stroke:#181818;stroke-width:0.5;"/><path d="M46.3286,1319.0069 C50.3286,1319.0069 53.3286,1319.0069 57.3286,1315.0069 C65.3286,1315.0069 73.3286,1323.0069 73.3286,1331.0069 L73.3286,1335.0069 C73.3286,1339.0069 69.3286,1343.0069 65.3286,1343.0069 L27.3286,1343.0069 C23.3286,1343.0069 19.3286,1339.0069 19.3286,1335.0069 L19.3286,1331.0069 C19.3286,1323.0069 27.3286,1315.0069 35.3286,1315.0069 C39.3286,1319.0069 42.3286,1319.0069 46.3286,1319.0069" fill="#F1F1F1" style="stroke:#181818;stroke-width:0.5;"/><text fill="#000000" font-family="'Times New Roman'" font-size="14" lengthAdjust="spacing" textLength="80.6572" x="6" y="1356.502">Nguoi dung</text></g><!--entity Google--><g class="entity" data-qualified-name="Google" data-source-line="20" id="ent0004"><ellipse cx="211.4057" cy="953.0069" fill="#F1F1F1" rx="16" ry="16" style="stroke:#181818;stroke-width:0.5;"/><path d="M211.4057,973.0069 C215.4057,973.0069 218.4057,973.0069 222.4057,969.0069 C230.4057,969.0069 238.4057,977.0069 238.4057,985.0069 L238.4057,989.0069 C238.4057,993.0069 234.4057,997.0069 230.4057,997.0069 L192.4057,997.0069 C188.4057,997.0069 184.4057,993.0069 184.4057,989.0069 L184.4057,985.0069 C184.4057,977.0069 192.4057,969.0069 200.4057,969.0069 C204.4057,973.0069 207.4057,973.0069 211.4057,973.0069" fill="#F1F1F1" style="stroke:#181818;stroke-width:0.5;"/><text fill="#000000" font-family="'Times New Roman'" font-size="14" lengthAdjust="spacing" textLength="97.6514" x="162.58" y="1010.502">Google OAuth</text></g><!--entity OTPMail--><g class="entity" data-qualified-name="OTPMail" data-source-line="21" id="ent0005"><ellipse cx="211.4085" cy="1065.0069" fill="#F1F1F1" rx="16" ry="16" style="stroke:#181818;stroke-width:0.5;"/><path d="M211.4085,1085.0069 C215.4085,1085.0069 218.4085,1085.0069 222.4085,1081.0069 C230.4085,1081.0069 238.4085,1089.0069 238.4085,1097.0069 L238.4085,1101.0069 C238.4085,1105.0069 234.4085,1109.0069 230.4085,1109.0069 L192.4085,1109.0069 C188.4085,1109.0069 184.4085,1105.0069 184.4085,1101.0069 L184.4085,1097.0069 C184.4085,1089.0069 192.4085,1081.0069 200.4085,1081.0069 C204.4085,1085.0069 207.4085,1085.0069 211.4085,1085.0069" fill="#F1F1F1" style="stroke:#181818;stroke-width:0.5;"/><text fill="#000000" font-family="'Times New Roman'" font-size="14" lengthAdjust="spacing" textLength="127.4971" x="147.66" y="1122.502">Email OTP Service</text></g><!--entity Cloudinary--><g class="entity" data-qualified-name="Cloudinary" data-source-line="22" id="ent0006"><ellipse cx="211.4065" cy="2123.0069" fill="#F1F1F1" rx="16" ry="16" style="stroke:#181818;stroke-width:0.5;"/><path d="M211.4065,2143.0069 C215.4065,2143.0069 218.4065,2143.0069 222.4065,2139.0069 C230.4065,2139.0069 238.4065,2147.0069 238.4065,2155.0069 L238.4065,2159.0069 C238.4065,2163.0069 234.4065,2167.0069 230.4065,2167.0069 L192.4065,2167.0069 C188.4065,2167.0069 184.4065,2163.0069 184.4065,2159.0069 L184.4065,2155.0069 C184.4065,2147.0069 192.4065,2139.0069 200.4065,2139.0069 C204.4065,2143.0069 207.4065,2143.0069 211.4065,2143.0069" fill="#F1F1F1" style="stroke:#181818;stroke-width:0.5;"/><text fill="#000000" font-family="'Times New Roman'" font-size="14" lengthAdjust="spacing" textLength="75.373" x="173.72" y="2180.502">Cloudinary</text></g><!--link User to Guest--><g class="link" data-entity-1="ent0003" data-entity-2="ent0002" data-link-type="extension" data-source-line="24" id="lnk7"><path d="M47.93,1282.1469 C50.98,1102.9269 66.53,363.3969 116.66,274.1569 C131.38,247.9469 145.1075,237.4545 167.2175,226.8945" fill="none" id="User-to-Guest" style="stroke:#355C7D;stroke-width:1;"/><polygon fill="none" points="183.46,219.1369,164.6316,221.4803,169.8034,232.3087,183.46,219.1369" style="stroke:#355C7D;stroke-width:1;"/></g><!--link Guest to UC_Register--><g class="link" data-entity-1="ent0002" data-entity-2="ent0010" data-link-type="dependency" data-source-line="64" id="lnk38"><path d="M239.33,194.8769 C274.39,179.6969 335.31,160.9769 370.15,194.1569 C383.37,206.7369 366.21,344.3669 378.15,358.1569 C405.04,389.2069 444.0437,398.2557 482.9437,399.6257" fill="none" id="Guest-to-UC_Register" style="stroke:#355C7D;stroke-width:1;"/><polygon fill="#355C7D" points="488.94,399.8369,480.0864,395.5226,483.9431,399.6609,479.8048,403.5176,488.94,399.8369" style="stroke:#355C7D;stroke-width:1;"/></g><!--link Guest to UC_Login--><g class="link" data-entity-1="ent0002" data-entity-2="ent0011" data-link-type="dependency" data-source-line="65" id="lnk39"><path d="M239.17,215.8769 C280.01,228.2469 354.78,253.4369 370.15,276.1569 C379.72,290.2869 367,570.2469 378.15,583.1569 C410.78,620.8969 464.5232,625.3543 507.3032,622.5143" fill="none" id="Guest-to-UC_Login" style="stroke:#355C7D;stroke-width:1;"/><polygon fill="#355C7D" points="513.29,622.1169,504.0448,618.7218,508.301,622.4481,504.5747,626.7043,513.29,622.1169" style="stroke:#355C7D;stroke-width:1;"/></g><!--link Guest to UC_Forgot--><g class="link" data-entity-1="ent0002" data-entity-2="ent0013" data-link-type="dependency" data-source-line="66" id="lnk40"><path d="M239.29,203.6469 C275.18,199.3369 337.97,198.1469 370.15,235.1569 C389.41,257.2969 359.96,476.1269 378.15,499.1569 C405.18,533.3669 447.0272,545.0859 487.2972,548.9359" fill="none" id="Guest-to-UC_Forgot" style="stroke:#355C7D;stroke-width:1;"/><polygon fill="#355C7D" points="493.27,549.5069,484.6915,544.6685,488.2927,549.031,483.9302,552.6322,493.27,549.5069" style="stroke:#355C7D;stroke-width:1;"/></g><!--link User to UC_Refresh--><g class="link" data-entity-1="ent0003" data-entity-2="ent0017" data-link-type="dependency" data-source-line="68" id="lnk41"><path d="M49.34,1282.1469 C57.03,1141.1269 87.3,658.7069 147.66,518.1569 C191.21,416.7469 205.39,373.3569 305.15,326.1569 C331.27,313.8069 349.47,305.9869 370.15,326.1569 C382.92,338.6169 366.53,633.6269 378.15,647.1569 C408.45,682.4369 456.3634,688.8689 498.2134,687.4589" fill="none" id="User-to-UC_Refresh" style="stroke:#355C7D;stroke-width:1;"/><polygon fill="#355C7D" points="504.21,687.2569,495.0804,683.5622,499.2128,687.4252,495.3498,691.5577,504.21,687.2569" style="stroke:#355C7D;stroke-width:1;"/></g><!--link User to UC_Logout--><g class="link" data-entity-1="ent0003" data-entity-2="ent0018" data-link-type="dependency" data-source-line="69" id="lnk42"><path d="M51.33,1282.0169 C69.23,1115.5369 148.14,469.7869 305.15,358.1569 C328.7,341.4169 349.5,337.9569 370.15,358.1569 C384.26,371.9469 365.28,698.2069 378.15,713.1569 C411.24,751.5669 466.4259,755.5632 509.3559,752.4332" fill="none" id="User-to-UC_Logout" style="stroke:#355C7D;stroke-width:1;"/><polygon fill="#355C7D" points="515.34,751.9969,506.073,748.6619,510.3532,752.3605,506.6547,756.6407,515.34,751.9969" style="stroke:#355C7D;stroke-width:1;"/></g><!--link User to UC_Profile--><g class="link" data-entity-1="ent0003" data-entity-2="ent0019" data-link-type="dependency" data-source-line="70" id="lnk43"><path d="M47.3,1282.1669 C47.6,1086.7169 54.2,220.1869 147.66,152.1569 C227.65,93.9269 300.5,88.8969 370.15,159.1569 C389.44,178.6069 360.16,261.5069 378.15,282.1569 C401.85,309.3569 433.3798,319.6093 468.4498,323.1193" fill="none" id="User-to-UC_Profile" style="stroke:#355C7D;stroke-width:1;"/><polygon fill="#355C7D" points="474.42,323.7169,465.8631,318.8405,469.4449,323.2189,465.0664,326.8007,474.42,323.7169" style="stroke:#355C7D;stroke-width:1;"/></g><!--link User to UC_Security--><g class="link" data-entity-1="ent0003" data-entity-2="ent0020" data-link-type="dependency" data-source-line="71" id="lnk44"><path d="M47.09,1282.1369 C46.3,1081.4869 48.27,172.5369 147.66,104.1569 C229.18,48.0669 299.09,43.2969 370.15,112.1569 C392.32,133.6369 358.53,157.3269 378.15,181.1569 C399.05,206.5369 425.072,219.6032 456.472,227.9632" fill="none" id="User-to-UC_Security" style="stroke:#355C7D;stroke-width:1;"/><polygon fill="#355C7D" points="462.27,229.5069,454.6021,223.326,457.4383,228.2205,452.5438,231.0567,462.27,229.5069" style="stroke:#355C7D;stroke-width:1;"/></g><!--link User to UC_SearchUser--><g class="link" data-entity-1="ent0003" data-entity-2="ent0021" data-link-type="dependency" data-source-line="72" id="lnk45"><path d="M50.24,1282.0469 C58.43,1183.8669 85.28,931.1769 147.66,880.1569 C230.04,812.7669 347.9299,804.0829 438.9999,809.3129" fill="none" id="User-to-UC_SearchUser" style="stroke:#355C7D;stroke-width:1;"/><polygon fill="#355C7D" points="444.99,809.6569,436.2341,805.1474,439.9982,809.3702,435.7755,813.1343,444.99,809.6569" style="stroke:#355C7D;stroke-width:1;"/></g><!--link User to UC_Presence--><g class="link" data-entity-1="ent0003" data-entity-2="ent0022" data-link-type="dependency" data-source-line="73" id="lnk46"><path d="M51.22,1282.2069 C61.24,1190.5169 91.2,965.3069 147.66,919.1569 C197.24,878.6269 371.8707,889.3604 477.9707,900.1404" fill="none" id="User-to-UC_Presence" style="stroke:#355C7D;stroke-width:1;"/><polygon fill="#355C7D" points="483.94,900.7469,475.3904,895.8576,478.9656,900.2415,474.5818,903.8167,483.94,900.7469" style="stroke:#355C7D;stroke-width:1;"/></g><!--link User to UC_SendFriendReq--><g class="link" data-entity-1="ent0003" data-entity-2="ent0024" data-link-type="dependency" data-source-line="75" id="lnk47"><path d="M86.79,1286.5169 C104.33,1272.8569 125.91,1258.2869 147.66,1249.1569 C261.38,1201.4169 397.9223,1179.2079 483.0523,1169.0479" fill="none" id="User-to-UC_SendFriendReq" style="stroke:#355C7D;stroke-width:1;"/><polygon fill="#355C7D" points="489.01,1168.3369,479.5994,1165.4316,484.0452,1168.9294,480.5474,1173.3752,489.01,1168.3369" style="stroke:#355C7D;stroke-width:1;"/></g><!--link User to UC_HandleFriendReq--><g class="link" data-entity-1="ent0003" data-entity-2="ent0025" data-link-type="dependency" data-source-line="76" id="lnk48"><path d="M86.9,1304.9969 C96.54,1301.4269 106.88,1297.9069 116.66,1295.1569 C231.59,1262.8869 362.3732,1249.2242 453.9932,1243.1442" fill="none" id="User-to-UC_HandleFriendReq" style="stroke:#355C7D;stroke-width:1;"/><polygon fill="#355C7D" points="459.98,1242.7469,450.7349,1239.3516,454.991,1243.078,451.2646,1247.334,459.98,1242.7469" style="stroke:#355C7D;stroke-width:1;"/></g><!--link User to UC_Relation--><g class="link" data-entity-1="ent0003" data-entity-2="ent0026" data-link-type="dependency" data-source-line="77" id="lnk49"><path d="M86.95,1321.0069 C166.29,1320.6969 340.83,1320.0204 455.43,1319.5704" fill="none" id="User-to-UC_Relation" style="stroke:#355C7D;stroke-width:1;"/><polygon fill="#355C7D" points="461.43,1319.5469,452.4144,1315.5822,456.43,1319.5665,452.4458,1323.5822,461.43,1319.5469" style="stroke:#355C7D;stroke-width:1;"/></g><!--link User to UC_Contacts--><g class="link" data-entity-1="ent0003" data-entity-2="ent0027" data-link-type="dependency" data-source-line="78" id="lnk50"><path d="M86.95,1326.6069 C177.91,1339.1269 395.946,1369.1388 501.076,1383.6088" fill="none" id="User-to-UC_Contacts" style="stroke:#355C7D;stroke-width:1;"/><polygon fill="#355C7D" points="507.02,1384.4269,498.6495,1379.2371,502.0667,1383.7451,497.5586,1387.1623,507.02,1384.4269" style="stroke:#355C7D;stroke-width:1;"/></g><!--link User to UC_QR--><g class="link" data-entity-1="ent0003" data-entity-2="ent0028" data-link-type="dependency" data-source-line="79" id="lnk51"><path d="M86.99,1338.1269 C105.29,1345.6469 127.4,1354.3269 147.66,1361.1569 C248.41,1395.1169 274.67,1400.7669 378.15,1425.1569 C417.66,1434.4669 456.4088,1442.1226 491.9488,1448.6526" fill="none" id="User-to-UC_QR" style="stroke:#355C7D;stroke-width:1;"/><polygon fill="#355C7D" points="497.85,1449.7369,489.721,1444.1763,492.9323,1448.8333,488.2753,1452.0446,497.85,1449.7369" style="stroke:#355C7D;stroke-width:1;"/></g><!--link User to UC_Suggest--><g class="link" data-entity-1="ent0003" data-entity-2="ent0029" data-link-type="dependency" data-source-line="80" id="lnk52"><path d="M85.28,1360.2069 C103.06,1376.9169 125.23,1395.6469 147.66,1409.1569 C260.02,1476.8769 406.0305,1508.8773 491.6005,1523.0373" fill="none" id="User-to-UC_Suggest" style="stroke:#355C7D;stroke-width:1;"/><polygon fill="#355C7D" points="497.52,1524.0169,489.2938,1518.6012,492.5871,1523.2006,487.9877,1526.4939,497.52,1524.0169" style="stroke:#355C7D;stroke-width:1;"/></g><!--link User to UC_CreateConv--><g class="link" data-entity-1="ent0003" data-entity-2="ent0031" data-link-type="dependency" data-source-line="82" id="lnk53"><path d="M56.79,1359.8869 C70.52,1410.4369 99.73,1499.8969 147.66,1563.1569 C201.46,1634.1669 223.19,1652.2369 305.15,1687.1569 C355.3,1708.5269 409.4274,1717.2896 459.0174,1721.0796" fill="none" id="User-to-UC_CreateConv" style="stroke:#355C7D;stroke-width:1;"/><polygon fill="#355C7D" points="465,1721.5369,456.331,1716.8627,460.0145,1721.1559,455.7214,1724.8394,465,1721.5369" style="stroke:#355C7D;stroke-width:1;"/></g><!--link User to UC_GroupManage--><g class="link" data-entity-1="ent0003" data-entity-2="ent0032" data-link-type="dependency" data-source-line="83" id="lnk54"><path d="M47,1360.1769 C48.53,1433.0769 62.23,1590.8269 147.66,1682.1569 C221.86,1761.4969 338.1141,1791.0311 430.8441,1802.3311" fill="none" id="User-to-UC_GroupManage" style="stroke:#355C7D;stroke-width:1;"/><polygon fill="#355C7D" points="436.8,1803.0569,428.3499,1797.9976,431.8367,1802.4521,427.3822,1805.9388,436.8,1803.0569" style="stroke:#355C7D;stroke-width:1;"/></g><!--link User to UC_ListConv--><g class="link" data-entity-1="ent0003" data-entity-2="ent0033" data-link-type="dependency" data-source-line="84" id="lnk55"><path d="M51.08,1360.0269 C61.27,1457.7769 92.45,1710.3369 147.66,1771.1569 C228.37,1860.0769 363.8369,1885.8767 459.0069,1893.0367" fill="none" id="User-to-UC_ListConv" style="stroke:#355C7D;stroke-width:1;"/><polygon fill="#355C7D" points="464.99,1893.4869,456.3155,1888.823,460.0041,1893.1118,455.7153,1896.8004,464.99,1893.4869" style="stroke:#355C7D;stroke-width:1;"/></g><!--link User to UC_History--><g class="link" data-entity-1="ent0003" data-entity-2="ent0034" data-link-type="dependency" data-source-line="85" id="lnk56"><path d="M49.34,1360.0369 C55.89,1471.2069 80.16,1787.2069 147.66,1861.1569 C232.1,1953.6769 378.3114,1972.4767 473.2214,1974.5367" fill="none" id="User-to-UC_History" style="stroke:#355C7D;stroke-width:1;"/><polygon fill="#355C7D" points="479.22,1974.6669,470.3089,1970.4725,474.2212,1974.5584,470.1353,1978.4706,479.22,1974.6669" style="stroke:#355C7D;stroke-width:1;"/></g><!--link User to UC_SendMsg--><g class="link" data-entity-1="ent0003" data-entity-2="ent0035" data-link-type="dependency" data-source-line="86" id="lnk57"><path d="M64.16,1360.0269 C80.88,1394.6369 109.53,1444.5469 147.66,1476.1569 C253.56,1563.9769 405.1264,1610.1036 492.6764,1631.1636" fill="none" id="User-to-UC_SendMsg" style="stroke:#355C7D;stroke-width:1;"/><polygon fill="#355C7D" points="498.51,1632.5669,490.6951,1626.5729,493.6487,1631.3975,488.8241,1634.351,498.51,1632.5669" style="stroke:#355C7D;stroke-width:1;"/></g><!--link User to UC_ReceiveMsg--><g class="link" data-entity-1="ent0003" data-entity-2="ent0036" data-link-type="dependency" data-source-line="87" id="lnk58"><path d="M47.91,1359.9069 C50.59,1483.3769 65.5,1864.4569 147.66,1949.1569 C223.3,2027.1469 341.8306,2049.9709 434.8806,2055.5009" fill="none" id="User-to-UC_ReceiveMsg" style="stroke:#355C7D;stroke-width:1;"/><polygon fill="#355C7D" points="440.87,2055.8569,432.1232,2051.33,435.8788,2055.5602,431.6485,2059.3159,440.87,2055.8569" style="stroke:#355C7D;stroke-width:1;"/></g><!--link UC_Register to UC_SendOtp--><g class="link" data-entity-1="ent0010" data-entity-2="ent0014" data-link-type="dependency" data-source-line="89" id="lnk59"><path d="M488.08,389.2269 C450.02,391.0269 406.21,400.2769 378.15,429.1569 C361.05,446.7669 337.99,570.1469 342.91,668.6569 C350.75,825.4669 271.11,905.2969 378.15,1020.1569 C415.03,1059.7169 475.6821,1062.0919 518.3921,1058.4119" fill="none" id="UC_Register-to-UC_SendOtp" style="stroke:#355C7D;stroke-width:1;stroke-dasharray:7,7;"/><polygon fill="#355C7D" points="524.37,1057.8969,515.0598,1054.6842,519.3885,1058.3261,515.7466,1062.6547,524.37,1057.8969" style="stroke:#355C7D;stroke-width:1;"/><text fill="#000000" font-family="'Times New Roman'" font-size="13" lengthAdjust="spacing" textLength="63.0068" x="306.15" y="664.7238">&#171;include&#187;</text></g><!--link UC_Register to UC_VerifyOtp--><g class="link" data-entity-1="ent0010" data-entity-2="ent0015" data-link-type="dependency" data-source-line="90" id="lnk60"><path d="M510.89,407.9069 C459.8,417.5169 384.5,421.6669 342.91,376.6569 C333.71,366.6969 300.79,279.2969 378.15,198.1569 C408.74,166.0769 451.5356,154.4695 491.4756,150.0995" fill="none" id="UC_Register-to-UC_VerifyOtp" style="stroke:#355C7D;stroke-width:1;stroke-dasharray:7,7;"/><polygon fill="#355C7D" points="497.44,149.4469,488.0583,146.4495,492.4697,149.9907,488.9285,154.402,497.44,149.4469" style="stroke:#355C7D;stroke-width:1;"/><text fill="#000000" font-family="'Times New Roman'" font-size="13" lengthAdjust="spacing" textLength="63.0068" x="306.15" y="372.7238">&#171;include&#187;</text></g><!--link UC_Forgot to UC_SendOtp--><g class="link" data-entity-1="ent0013" data-entity-2="ent0014" data-link-type="dependency" data-source-line="91" id="lnk61"><path d="M497.55,543.3169 C457.39,543.6669 408.35,551.6069 378.15,583.1569 C255.95,710.8169 331.69,749.7169 342.91,855.6569 C350.79,930.0069 324.22,968.3769 378.15,1020.1569 C416.69,1057.1569 475.5933,1060.4167 517.6633,1057.6067" fill="none" id="UC_Forgot-to-UC_SendOtp" style="stroke:#355C7D;stroke-width:1;stroke-dasharray:7,7;"/><polygon fill="#355C7D" points="523.65,1057.2069,514.4034,1053.8156,518.6611,1057.5401,514.9366,1061.7978,523.65,1057.2069" style="stroke:#355C7D;stroke-width:1;"/><text fill="#000000" font-family="'Times New Roman'" font-size="13" lengthAdjust="spacing" textLength="63.0068" x="306.15" y="851.7238">&#171;include&#187;</text></g><!--link UC_Forgot to UC_VerifyOtp--><g class="link" data-entity-1="ent0013" data-entity-2="ent0015" data-link-type="dependency" data-source-line="92" id="lnk62"><path d="M493.47,547.0869 C438.29,541.0069 367.08,521.9769 342.91,465.6569 C334.55,446.1669 265.71,325.3269 378.15,198.1569 C407.62,164.8269 450.7196,153.2317 491.0696,149.2117" fill="none" id="UC_Forgot-to-UC_VerifyOtp" style="stroke:#355C7D;stroke-width:1;stroke-dasharray:7,7;"/><polygon fill="#355C7D" points="497.04,148.6169,487.6878,145.5288,492.0646,149.1126,488.4809,153.4894,497.04,148.6169" style="stroke:#355C7D;stroke-width:1;"/><text fill="#000000" font-family="'Times New Roman'" font-size="13" lengthAdjust="spacing" textLength="63.0068" x="306.15" y="461.7238">&#171;include&#187;</text></g><!--link UC_Forgot to UC_ResetPwd--><g class="link" data-entity-1="ent0013" data-entity-2="ent0016" data-link-type="dependency" data-source-line="93" id="lnk63"><path d="M564.21,532.3669 C564.21,517.7569 564.21,502.6469 564.21,487.7969" fill="none" id="UC_Forgot-to-UC_ResetPwd" style="stroke:#355C7D;stroke-width:1;stroke-dasharray:7,7;"/><polygon fill="#355C7D" points="564.21,481.7969,560.21,490.7969,564.21,486.7969,568.21,490.7969,564.21,481.7969" style="stroke:#355C7D;stroke-width:1;"/><text fill="#000000" font-family="'Times New Roman'" font-size="13" lengthAdjust="spacing" textLength="63.0068" x="521.21" y="511.5638">&#171;include&#187;</text></g><!--link UC_Security to UC_SendOtp--><g class="link" data-entity-1="ent0020" data-entity-2="ent0014" data-link-type="dependency" data-source-line="94" id="lnk64"><path d="M452.63,243.4769 C424.85,249.6569 397.5,261.2569 378.15,282.1569 C304.47,361.7569 350.77,415.4669 342.91,523.6569 C334.91,633.9769 303.82,938.2469 378.15,1020.1569 C414.61,1060.3269 475.7145,1062.4791 518.5845,1058.5891" fill="none" id="UC_Security-to-UC_SendOtp" style="stroke:#355C7D;stroke-width:1;stroke-dasharray:7,7;"/><polygon fill="#355C7D" points="524.56,1058.0469,515.2354,1054.8766,519.5805,1058.4987,515.9583,1062.8438,524.56,1058.0469" style="stroke:#355C7D;stroke-width:1;"/><text fill="#000000" font-family="'Times New Roman'" font-size="13" lengthAdjust="spacing" textLength="63.0068" x="306.15" y="536.7238">&#171;include&#187;</text></g><!--link UC_Security to UC_VerifyOtp--><g class="link" data-entity-1="ent0020" data-entity-2="ent0015" data-link-type="dependency" data-source-line="95" id="lnk65"><path d="M564.21,215.0169 C564.21,198.8469 564.21,184.3069 564.21,170.2869" fill="none" id="UC_Security-to-UC_VerifyOtp" style="stroke:#355C7D;stroke-width:1;stroke-dasharray:7,7;"/><polygon fill="#355C7D" points="564.21,164.2869,560.21,173.2869,564.21,169.2869,568.21,173.2869,564.21,164.2869" style="stroke:#355C7D;stroke-width:1;"/><text fill="#000000" font-family="'Times New Roman'" font-size="13" lengthAdjust="spacing" textLength="63.0068" x="521.21" y="194.1438">&#171;include&#187;</text></g><!--link UC_Login to UC_GoogleLogin--><g class="link" data-entity-1="ent0011" data-entity-2="ent0012" data-link-type="dependency" data-source-line="96" id="lnk66"><path d="M511.97,608.7669 C469.77,606.7669 412,611.7269 378.15,647.1569 C278.21,751.7869 337.39,928.8369 343.91,937.6569 C376.5,981.7369 433.5101,991.5019 483.8201,991.2919" fill="none" id="UC_Login-to-UC_GoogleLogin" style="stroke:#355C7D;stroke-width:1;stroke-dasharray:7,7;"/><polygon fill="#355C7D" points="489.82,991.2669,480.8034,987.3045,484.82,991.2877,480.8368,995.3044,489.82,991.2669" style="stroke:#355C7D;stroke-width:1;"/><text fill="#000000" font-family="'Times New Roman'" font-size="13" lengthAdjust="spacing" textLength="61.1851" x="307.15" y="933.7238">&#171;extend&#187;</text></g><!--link UC_SendMsg to UC_Upload--><g class="link" data-entity-1="ent0035" data-entity-2="ent0037" data-link-type="dependency" data-source-line="97" id="lnk67"><path d="M501.38,1631.7769 C451,1624.3469 382.53,1624.2869 343.91,1666.6569 C278.98,1737.9169 315.65,2025.7469 378.15,2099.1569 C393.79,2117.5269 409.7772,2127.3742 432.8572,2134.6442" fill="none" id="UC_SendMsg-to-UC_Upload" style="stroke:#355C7D;stroke-width:1;stroke-dasharray:7,7;"/><polygon fill="#355C7D" points="438.58,2136.4469,431.1975,2129.9277,433.811,2134.9447,428.794,2137.5581,438.58,2136.4469" style="stroke:#355C7D;stroke-width:1;"/><text fill="#000000" font-family="'Times New Roman'" font-size="13" lengthAdjust="spacing" textLength="61.1851" x="307.15" y="1679.7238">&#171;extend&#187;</text></g><!--link UC_Profile to UC_Upload--><g class="link" data-entity-1="ent0019" data-entity-2="ent0037" data-link-type="dependency" data-source-line="98" id="lnk68"><path d="M474.58,316.1569 C439.27,319.5969 401.62,330.5069 378.15,358.1569 C245.86,514.0669 339.66,1073.2269 343.91,1277.6569 C347.72,1460.3269 262.55,1957.6669 378.15,2099.1569 C393.42,2117.8369 409.2402,2127.8146 432.2802,2135.1146" fill="none" id="UC_Profile-to-UC_Upload" style="stroke:#355C7D;stroke-width:1;stroke-dasharray:7,7;"/><polygon fill="#355C7D" points="438,2136.9269,430.6285,2130.3953,433.2335,2135.4167,428.2122,2138.0217,438,2136.9269" style="stroke:#355C7D;stroke-width:1;"/><text fill="#000000" font-family="'Times New Roman'" font-size="13" lengthAdjust="spacing" textLength="61.1851" x="307.15" y="1273.7238">&#171;extend&#187;</text></g><!--link Google to UC_GoogleLogin--><g class="link" data-entity-1="ent0004" data-entity-2="ent0012" data-link-type="dependency" data-source-line="100" id="lnk69"><path d="M260.45,976.3869 C318.15,977.8669 409.752,980.2233 478.512,981.9833" fill="none" id="Google-to-UC_GoogleLogin" style="stroke:#355C7D;stroke-width:1;"/><polygon fill="#355C7D" points="484.51,982.1369,475.6153,977.9079,479.5116,982.0089,475.4106,985.9053,484.51,982.1369" style="stroke:#355C7D;stroke-width:1;"/></g><!--link OTPMail to UC_SendOtp--><g class="link" data-entity-1="ent0005" data-entity-2="ent0014" data-link-type="dependency" data-source-line="101" id="lnk70"><path d="M275.53,1080.8569 C347.23,1073.7069 456.1597,1062.8428 516.7697,1056.7928" fill="none" id="OTPMail-to-UC_SendOtp" style="stroke:#355C7D;stroke-width:1;"/><polygon fill="#355C7D" points="522.74,1056.1969,513.3872,1053.1106,517.7647,1056.6935,514.1818,1061.071,522.74,1056.1969" style="stroke:#355C7D;stroke-width:1;"/></g><!--link Cloudinary to UC_Upload--><g class="link" data-entity-1="ent0006" data-entity-2="ent0037" data-link-type="dependency" data-source-line="102" id="lnk71"><path d="M249.29,2145.1569 C292.65,2145.1569 361.02,2145.1569 426.5,2145.1569" fill="none" id="Cloudinary-to-UC_Upload" style="stroke:#355C7D;stroke-width:1;"/><polygon fill="#355C7D" points="432.5,2145.1569,423.5,2141.1569,427.5,2145.1569,423.5,2149.1569,432.5,2145.1569" style="stroke:#355C7D;stroke-width:1;"/></g><?plantuml-src ZLPBRzj64BxpLmnKeB0FhX4qQTeY423Bads87fRa8it569CZSg7bBhjSIX7I_FSEtqlIJdgGHCr-y_hciRJ2IeB7b62A_BNJAeI732rSmMSj4Ixy2EqJ9icbvqdQMx0QZ0WZ2u4mv5kXbPSUX4hGO0nfX84-2RQnHvcISvAWVy2GjlRCxd95LA5q0G7jCPDshfLTOammsecOKbZI2JOwHZLoiEXRRKfJUA9KnwwXB2K_J-Mh1t33NaEZCnLCjTG6VfhDvc_dD_c9DW6PIlhhktVJzxSidHYZJrtXDyTq4_VBnkVp-H-pMT_uxpU_pT--PpjU4JRSPPJQwdcq33Cj8CXKE09CypgO-kXEwzpJQfBPg3Wi1VNnB4OXORLRmvRCKVXKOFZ_WkKLQ2fr5WY5vknvkMcuklftN0NWjScCFgy-Jc1wFzazJTPix-_jRhOOSOwSIbKt6ELXmC-mDdel98qA1g0XUtJBfk1m1ei23f7cUXNvJ9ys58hKSbf3k8emgM4VTIZKAvWgynfQ_dj1uI4Z1J7txY72h4RFjGcrxGBlCf4pLKEsf8ALJRgOJ-X3B5Ja0lyY8_Rd0VIMNKhEk-zwGodPzIdeeZUqDvH6F4W7SbWgX2yGy8M7qI59PxrSFb4Cr-0pIqoLXQIkJwbHbQkhCgt1pwYBe8_8UkA8_hcbnC-CiEUk8eya70GLCsRW8ecqekj0f8d4CoYUsijM7uqV5UqyY3RXJ4dvnEuLF3kXbc9M-DRflBaHNA0q4WdttvJt0pVteF_oaaeUfPW_1yfJKsvvIniR-gV7H5HIePX2cu4VwSPAhNsFAf3qYlwZsXS7h7uZjN_WtqVrd3-rXPLOBCa13G5oSprZ3QmIItkCHumiUCfxuM5JenysGuCX1txkaRhDmZ2VzZwd2qgPx93CWCWTzqHEW-KX5l3cwWtdj8nqtCHf22rnjCV-yB5ZoGiWolCwCYjSBGnuX9ZWLlsE5sQoGCLHl499YdxKHj2qFY-HeTDSIGh6fndOmbDRzdlMqEOyR9CQoEiSfULRncsKHHfsDPOvSg025zlTQh6-RCliapZIGFinaHe3Y2aGV9VY4IsQQxHSwIWcPHlz4bUKYGjLR6XUrkFE0kr8o_NN4LMRhjxqOtUlkB9gYxYYUasuicO5T8NDN7VrgzdjWTt1Sq_wGzKDkPeOLzXCXola8UYugtgzgzYsgojssx33JTrcdMYhJkhdbbUx6tdJ19vJEFXbxDmoy2Ty-22KBxE0nkCNSCqbCqIM5VwHlGxg_rghxweXhEw37xdjuRxZkEZT2kPSvWMGlbXsK5iiEAwGrIZrGLNhVWVaLMzITUcTruVgTSajQdwxj-zDzKbfzpy0?></g></svg>